<svg width="3140" height="1556" xmlns="http://www.w3.org/2000/svg" xmlns:xlink="http://www.w3.org/1999/xlink" overflow="hidden"><defs><clipPath id="clip0"><rect x="3171" y="936" width="3140" height="1556"/></clipPath><clipPath id="clip1"><rect x="3172" y="937" width="3137" height="1552"/></clipPath><clipPath id="clip2"><rect x="3172" y="937" width="3137" height="1552"/></clipPath><clipPath id="clip3"><rect x="3172" y="937" width="3137" height="1552"/></clipPath><clipPath id="clip4"><rect x="3774" y="1198" width="2424" height="1244"/></clipPath><clipPath id="clip5"><rect x="3774" y="1198" width="2420" height="1244"/></clipPath><clipPath id="clip6"><rect x="3774" y="1198" width="2420" height="1244"/></clipPath><clipPath id="clip7"><rect x="3774" y="1198" width="2420" height="1244"/></clipPath><clipPath id="clip8"><rect x="3774" y="1198" width="2420" height="1244"/></clipPath><clipPath id="clip9"><rect x="3774" y="1198" width="2420" height="1244"/></clipPath><clipPath id="clip10"><rect x="3172" y="937" width="3137" height="1552"/></clipPath><clipPath id="clip11"><rect x="3172" y="937" width="3137" height="1552"/></clipPath><clipPath id="clip12"><rect x="3172" y="937" width="3137" height="1552"/></clipPath><clipPath id="clip13"><rect x="3172" y="937" width="3137" height="1552"/></clipPath><clipPath id="clip14"><rect x="3172" y="937" width="3137" height="1552"/></clipPath><clipPath id="clip15"><rect x="3172" y="937" width="3137" height="1552"/></clipPath><clipPath id="clip16"><rect x="3172" y="937" width="3137" height="1552"/></clipPath><clipPath id="clip17"><rect x="3172" y="937" width="3137" height="1552"/></clipPath><clipPath id="clip18"><rect x="3172" y="937" width="3137" height="1552"/></clipPath><clipPath id="clip19"><rect x="3172" y="937" width="3137" height="1552"/></clipPath><clipPath id="clip20"><rect x="3172" y="937" width="3137" height="1552"/></clipPath><clipPath id="clip21"><rect x="3172" y="937" width="3137" height="1552"/></clipPath><clipPath id="clip22"><rect x="3172" y="937" width="3137" height="1552"/></clipPath><clipPath id="clip23"><rect x="3172" y="937" width="3137" height="1552"/></clipPath><clipPath id="clip24"><rect x="3172" y="937" width="3137" height="1552"/></clipPath></defs><g clip-path="url(#clip0)" transform="translate(-3171 -936)"><rect x="3172" y="937" width="3137" height="1553" fill="#FFFFFF"/><g clip-path="url(#clip1)"><path d="M3840.63 1198.5 3840.63 2439.5M3907.63 1198.5 3907.63 2439.5M3973.63 1198.5 3973.63 2439.5M4039.63 1198.5 4039.63 2439.5M4172.64 1198.5 4172.64 2439.5M4238.64 1198.5 4238.64 2439.5M4304.64 1198.5 4304.64 2439.5M4371.64 1198.5 4371.64 2439.5M4503.65 1198.5 4503.65 2439.5M4570.65 1198.5 4570.65 2439.5M4636.65 1198.5 4636.65 2439.5M4702.65 1198.5 4702.65 2439.5M4835.66 1198.5 4835.66 2439.5M4901.66 1198.5 4901.66 2439.5M4968.66 1198.5 4968.66 2439.5M5034.67 1198.5 5034.67 2439.5M5166.67 1198.5 5166.67 2439.5M5233.67 1198.5 5233.67 2439.5M5299.67 1198.5 5299.67 2439.5M5365.68 1198.5 5365.68 2439.5M5498.68 1198.5 5498.68 2439.5M5564.68 1198.5 5564.68 2439.5M5631.68 1198.5 5631.68 2439.5M5697.69 1198.5 5697.69 2439.5M5830.69 1198.5 5830.69 2439.5M5896.69 1198.5 5896.69 2439.5M5962.7 1198.5 5962.7 2439.5M6028.7 1198.5 6028.7 2439.5M6161.5 1198.5 6161.5 2439.5" stroke="#F2F2F2" stroke-width="3.4375" stroke-linejoin="round" stroke-miterlimit="10" fill="none"/></g><g clip-path="url(#clip2)"><path d="M4106.63 1198.5 4106.63 2439.5M4437.65 1198.5 4437.65 2439.5M4769.66 1198.5 4769.66 2439.5M5100.67 1198.5 5100.67 2439.5M5432.68 1198.5 5432.68 2439.5M5763.69 1198.5 5763.69 2439.5M6095.5 1198.5 6095.5 2439.5" stroke="#FFC000" stroke-width="3.4375" stroke-linejoin="round" stroke-miterlimit="10" fill="none"/></g><g clip-path="url(#clip3)"><path d="M3774.5 1198.5 6194.5 1198.5M3774.5 1446.55 6194.5 1446.55M3774.5 1694.56 6194.5 1694.56M3774.5 1942.56 6194.5 1942.56M3774.5 2191.57 6194.5 2191.57M3774.5 2439.5 6194.5 2439.5" stroke="#D9D9D9" stroke-width="3.4375" stroke-linejoin="round" stroke-miterlimit="10" fill="none"/></g><g clip-path="url(#clip4)"><path d="M4119.14 1273.04 3775 1273.04 3775 1372.05 4119.14 1372.05ZM4915.16 1521.05 4385.14 1521.05 4385.14 1620.05 4915.16 1620.05ZM5452.18 1769.06 4988.16 1769.06 4988.16 1868.06 5452.18 1868.06ZM5750.19 2017.07 5485.18 2017.07 5485.18 2117.07 5750.19 2117.07ZM6122.2 2265.07 5790.19 2265.07 5790.19 2365.08 6122.2 2365.08Z" fill="#FFC000"/></g><g clip-path="url(#clip5)"><path d="M3775 1322 4119 1322" stroke="#767171" stroke-width="75.625" stroke-linejoin="round" stroke-miterlimit="10" fill="none"/></g><g clip-path="url(#clip6)"><path d="M4385 1571 4862 1571" stroke="#767171" stroke-width="75.625" stroke-linejoin="round" stroke-miterlimit="10" fill="none"/></g><g clip-path="url(#clip7)"><path d="M4988 1819 5267 1819" stroke="#767171" stroke-width="75.625" stroke-linejoin="round" stroke-miterlimit="10" fill="none"/></g><g clip-path="url(#clip8)"><path d="M5485 2067 5499 2067" stroke="#767171" stroke-width="75.625" stroke-linejoin="round" stroke-miterlimit="10" fill="none"/></g><g clip-path="url(#clip9)"><path d="M5790 2315 5840 2315" stroke="#767171" stroke-width="75.625" stroke-linejoin="round" stroke-miterlimit="10" fill="none"/></g><g clip-path="url(#clip10)"><path d="M3774.5 1198.5 3774.5 2439.5" stroke="#D9D9D9" stroke-width="3.4375" stroke-linejoin="round" stroke-miterlimit="10" fill="none" fill-rule="evenodd"/></g><g clip-path="url(#clip11)"><text fill="#595959" font-family="Calibri,Calibri_MSFontService,sans-serif" font-weight="700" font-size="48" transform="matrix(1 0 0 1 3710.92 1150)">01-jun</text></g><g clip-path="url(#clip12)"><text fill="#595959" font-family="Calibri,Calibri_MSFontService,sans-serif" font-weight="700" font-size="48" transform="matrix(1 0 0 1 4049.46 1150)">21-jul</text></g><g clip-path="url(#clip13)"><text fill="#595959" font-family="Calibri,Calibri_MSFontService,sans-serif" font-weight="700" font-size="48" transform="matrix(1 0 0 1 4371.34 1150)">09-sep</text></g><g clip-path="url(#clip14)"><text fill="#595959" font-family="Calibri,Calibri_MSFontService,sans-serif" font-weight="700" font-size="48" transform="matrix(1 0 0 1 4706.16 1150)">29-oct</text></g><g clip-path="url(#clip15)"><text fill="#595959" font-family="Calibri,Calibri_MSFontService,sans-serif" font-weight="700" font-size="48" transform="matrix(1 0 0 1 5040.16 1150)">18-dic</text></g><g clip-path="url(#clip16)"><text fill="#595959" font-family="Calibri,Calibri_MSFontService,sans-serif" font-weight="700" font-size="48" transform="matrix(1 0 0 1 5367.97 1150)">06-feb</text></g><g clip-path="url(#clip17)"><text fill="#595959" font-family="Calibri,Calibri_MSFontService,sans-serif" font-weight="700" font-size="48" transform="matrix(1 0 0 1 5692.14 1150)">28-mar</text></g><g clip-path="url(#clip18)"><text fill="#595959" font-family="Calibri,Calibri_MSFontService,sans-serif" font-weight="700" font-size="48" transform="matrix(1 0 0 1 6020.83 1150)">17-may</text></g><g clip-path="url(#clip19)"><text fill="#595959" font-family="Calibri,Calibri_MSFontService,sans-serif" font-weight="700" font-size="48" transform="matrix(1 0 0 1 3633.84 1336)">MVP</text></g><g clip-path="url(#clip20)"><text fill="#595959" font-family="Calibri,Calibri_MSFontService,sans-serif" font-weight="700" font-size="48" transform="matrix(1 0 0 1 3202.11 1584)">Base de datos sitética v1.0</text></g><g clip-path="url(#clip21)"><text fill="#595959" font-family="Calibri,Calibri_MSFontService,sans-serif" font-weight="700" font-size="48" transform="matrix(1 0 0 1 3336.82 1833)">Visión artificial v1.0</text></g><g clip-path="url(#clip22)"><text fill="#595959" font-family="Calibri,Calibri_MSFontService,sans-serif" font-weight="700" font-size="48" transform="matrix(1 0 0 1 3514.88 2081)">Evaluación</text></g><g clip-path="url(#clip23)"><text fill="#595959" font-family="Calibri,Calibri_MSFontService,sans-serif" font-weight="700" font-size="48" transform="matrix(1 0 0 1 3525.26 2329)">Redacción</text></g><g clip-path="url(#clip24)"><text fill="#595959" font-family="Calibri,Calibri_MSFontService,sans-serif" font-weight="700" font-size="83" transform="matrix(1 0 0 1 4359.1 1050)">DIAGRAMA DE GANTT</text></g><rect x="3172.5" y="937.5" width="3137" height="1553" stroke="#D9D9D9" stroke-width="3.4375" stroke-linejoin="round" stroke-miterlimit="10" fill="none"/></g></svg>