<svg xmlns="http://www.w3.org/2000/svg" xmlns:xlink="http://www.w3.org/1999/xlink" xmlns:lucid="lucid" width="2160.16" height="495.7"><g transform="translate(-86.61310175767267 -426.15276973615363)" lucid:page-tab-id="0_0"><path d="M2156.04 784.76l-71.25-26.78c-.76-.13-1.5-.13-2.1 0L2011 784.9c-1.36.4-2.86 2.3-1.66 4.44v75.23c0 1.34.75 2.42 2.1 2.96l70.5 24.36c.45.12.75.4 1.5.52 1.05.14 1.65-.13 1.65-.13l71.7-24.77c1.2-.54 2.1-1.62 2.1-2.96v-76.7c0-1.5-1.8-2.7-2.86-3.1zm-9.45 3.1l-62.7 23.42-18.76-7 59.55-24.63 21.9 8.2zm-30.46-11.44l-62.7 25.84-1.5 14.94-11.7-4.7v-13.87l65.1-26.25 10.8 4.04zm-32.4-12.1l12.9 4.83-60.15 24.36-15.46-5.78 62.7-23.4zm-68.25 28.1l18.6 7v17.37l23.24 9.28 1.8-17.36 21.9 8.2v67.97l-65.55-22.62v-69.85zm137.1 69.86l-65.4 22.6v-68.1l65.4-24.48v69.98z" stroke="#000" stroke-opacity="0" stroke-width=".31" fill="#7ab648"/><path d="M1467.15 766.35v12.35h-15.9v12.46h-15.75v6.1h15.75v6.24h-15.75v6.12h15.75v6.23h-15.75v6.23h15.75v6.1h-15.75v6.24h15.75v6.24h-15.75v6.1h15.75V853h-15.75v6.1h15.75v12.48h15.9v12.34h7.8v-12.34h7.95v12.34h7.8v-12.34h7.95v12.34h7.95v-12.34h7.8v12.34h7.95v-12.34h7.95v12.34h7.8v-12.34h7.95v12.34h7.8v-12.34h15.9V859.1h15.75V853h-15.75v-6.23h15.75v-6.1h-15.75v-6.25h15.75v-6.23h-15.75v-6.12h15.75v-6.23h-15.75v-6.23h15.75v-6.12h-15.75v-6.23h15.75v-6.1h-15.75v-3.2l-11.85-9.27h-4.05v-12.35h-7.8v12.35h-7.95v-12.35h-7.8v12.35h-7.95v-12.35h-7.95v12.35h-7.8v-12.35h-7.95v12.35h-7.95v-12.35h-7.8v12.35h-7.95v-12.35h-7.8zm-7.95 18.58h94.65l7.95 6.23v74.18h-102.6v-80.4z" stroke="#000" stroke-opacity="0" stroke-width="0" fill="#ffaf28"/><path d="M1545.38 802.25h-18.87l-3.88-7.45c-.52-.96-1.56-1.53-2.6-1.53h-14.28c-1.12 0-2.08.57-2.6 1.53l-3.9 7.45h-23.6c-4.7 0-8.4 3.5-8.4 7.84v39.07c0 4.33 3.7 7.84 8.4 7.84h69.74c4.67 0 8.4-3.5 8.4-7.83V810.1c0-4.34-3.73-7.85-8.4-7.85zm-37.82-3.57h10.64l1.9 3.57h-14.45l1.9-3.57zm37.82 9c1.47 0 2.6 1.08 2.6 2.4v5.56h-10.57c-4.4-3.63-10.1-5.8-16.43-5.8-6.23 0-11.94 2.17-16.35 5.8h-31.6v-5.55c0-1.34 1.13-2.43 2.6-2.43h69.76zm-24.4 43.53c-10.57 0-19.13-8.1-19.13-17.97 0-9.94 8.56-18.04 19.12-18.04s19.2 8.1 19.2 18.03c0 9.88-8.64 17.98-19.2 17.98zm-47.95-2.03V821h26.74c-2.34 3.56-3.64 7.77-3.64 12.23 0 7.46 3.73 14.1 9.52 18.36h-30.02c-1.48 0-2.6-1.1-2.6-2.43zm72.35 2.42h-9c5.8-4.28 9.5-10.9 9.5-18.37 0-4.46-1.28-8.67-3.62-12.24h5.7v28.17c0 1.33-1.1 2.42-2.58 2.42z" stroke="#000" stroke-opacity="0" stroke-width=".51" fill="#ffaf28"/><path d="M1520.97 819.53c-7.96 0-14.54 6.12-14.54 13.7 0 7.52 6.58 13.64 14.54 13.64 8.05 0 14.63-6.12 14.63-13.64 0-7.58-6.58-13.7-14.63-13.7zm0 21.92c-4.84 0-8.74-3.7-8.74-8.22 0-4.6 3.9-8.28 8.74-8.28 4.93 0 8.83 3.7 8.83 8.28 0 4.53-3.9 8.22-8.83 8.22z" stroke="#000" stroke-opacity="0" stroke-width=".51" fill="#ffaf28"/><path d="M1279.84 467.36h-32.7l-6.75-13.8c-.9-1.77-2.7-2.83-4.5-2.83h-24.76c-1.95 0-3.6 1.06-4.5 2.83l-6.75 13.8h-40.96c-8.1 0-14.55 6.5-14.55 14.5v72.32c0 8.02 6.44 14.5 14.54 14.5h120.9c8.1 0 14.55-6.48 14.55-14.5v-72.3c0-8.03-6.46-14.52-14.56-14.52zm-65.55-6.6h18.44l3.3 6.6H1211l3.3-6.6zm65.54 16.63c2.55 0 4.5 2 4.5 4.47v10.26h-18.3c-7.65-6.72-17.55-10.73-28.5-10.73-10.8 0-20.7 4-28.35 10.73h-54.76v-10.26c0-2.48 1.95-4.48 4.5-4.48h120.9zm-42.3 80.55c-18.3 0-33.15-14.98-33.15-33.26 0-18.4 14.84-33.4 33.14-33.4s33.3 15 33.3 33.4c0 18.27-15 33.25-33.3 33.25zm-83.1-3.77v-52.14h46.35c-4.06 6.6-6.3 14.4-6.3 22.65 0 13.8 6.44 26.06 16.5 33.96h-52.06c-2.55 0-4.5-2-4.5-4.48zm125.4 4.48h-15.6c10.05-7.9 16.5-20.17 16.5-33.97 0-8.27-2.25-16.05-6.3-22.66h9.9v52.14c0 2.47-1.95 4.48-4.5 4.48z" stroke="#000" stroke-opacity="0" stroke-width=".51" fill="#4247a8"/><path d="M1237.54 499.33c-13.8 0-25.2 11.32-25.2 25.36 0 13.9 11.4 25.23 25.2 25.23 13.95 0 25.35-11.32 25.35-25.24 0-14.05-11.4-25.37-25.36-25.37zm0 40.57c-8.4 0-15.15-6.84-15.15-15.2 0-8.5 6.74-15.35 15.14-15.35 8.55 0 15.3 6.85 15.3 15.34 0 8.36-6.75 15.2-15.3 15.2z" stroke="#000" stroke-opacity="0" stroke-width=".51" fill="#4247a8"/><path d="M547.78 446.15v13.35h-15.9v13.47h-15.75v6.6h15.75v6.75h-15.75v6.6h15.75v6.75h-15.75v6.73h15.75v6.6h-15.75v6.75h15.75v6.74h-15.75v6.6h15.75v6.73h-15.75v6.6h15.75v13.5h15.9v13.33h7.8v-13.34h7.95v13.34h7.8v-13.34h7.95v13.34h7.95v-13.34h7.8v13.34h7.95v-13.34h7.95v13.34h7.8v-13.34h7.95v13.34h7.8v-13.34h15.9v-13.48h15.75v-6.6h-15.75v-6.74h15.75v-6.6h-15.75v-6.75h15.75V513h-15.75v-6.6h15.75v-6.73h-15.75v-6.74h15.75v-6.6h-15.75v-6.75h15.75v-6.6h-15.75v-3.44l-11.85-10.04h-4.05v-13.35h-7.8v13.35h-7.95v-13.35h-7.8v13.35h-7.95v-13.35h-7.95v13.35h-7.8v-13.35h-7.95v13.35h-7.95v-13.35h-7.8v13.35h-7.95v-13.35h-7.8zm-7.95 20.1h94.65l7.95 6.72v80.2h-102.6v-86.93z" stroke="#000" stroke-opacity="0" stroke-width="0" fill="#225798"/><path d="M574.77 521.42h45.1c5.1 0 9.3-3.78 9.3-8.38v-17.2-.07-.08-.15-.08l-.08-.07v-.15l-.1-.08v-.07c0-.07 0-.07-.07-.15v-.07c-.07 0-.07 0-.07-.08l-.08-.07s0-.07-.08-.07v-.08l-.07-.07-.08-.07c0-.07-.07-.07-.07-.07-.08 0-.08-.07-.08-.07-.08 0-.08-.1-.08-.1-.07 0-.07 0-.15-.06h-.07l-.08-.08-.08-.07h-.15c0-.1-.08-.1-.08-.1h-.08c-.08-.06-.08-.06-.15-.06H627.25h-.08l-57.12-7.2v-7.18-.23l-.08-.07V479v-.06-.08c-.07-.07-.07-.15-.07-.15v-.06c-.07-.07-.07-.07-.07-.15l-.08-.08-.07-.08v-.07s-.08 0-.08-.07l-.07-.08v-.07c-.08 0-.08-.08-.16-.08v-.07c-.07 0-.07 0-.15-.08h-.08c0-.07-.07-.07-.07-.07-.08-.07-.15-.07-.15-.07 0-.08 0-.08-.08-.08s-.15-.07-.15-.07l-12.4-4.75c-1.23-.44-2.52.08-3.05 1.1-.46 1.05.07 2.24 1.2 2.68l11.04 4.23v45.07c0 4.3 3.5 7.8 8.06 8.3-.84 1.27-1.3 2.75-1.3 4.3 0 4.6 4.1 8.3 9.2 8.3 5.03 0 9.14-3.7 9.14-8.3 0-1.55-.46-2.96-1.22-4.22h20.38c-.83 1.26-1.3 2.67-1.3 4.23 0 4.6 4.2 8.3 9.22 8.3 5.02 0 9.12-3.7 9.12-8.3 0-4.6-4.1-8.3-9.12-8.3h-42.9c-2.6 0-4.72-1.94-4.72-4.3v-5.57c1.37.75 2.96 1.12 4.7 1.12zm11.34 17.06c0 2.3-2.12 4.15-4.63 4.15-2.6 0-4.64-1.85-4.64-4.15 0-2.3 2.05-4.23 4.64-4.23 2.5 0 4.64 1.93 4.64 4.23zm36.22 0c0 2.3-2.06 4.15-4.64 4.15-2.52 0-4.64-1.85-4.64-4.15 0-2.3 2.12-4.23 4.64-4.23 2.58 0 4.64 1.93 4.64 4.23zm-2.44-21.14h-45.1c-2.6 0-4.72-1.92-4.72-4.3V490.8l54.54 6.82v15.42c0 2.38-2.13 4.3-4.72 4.3z" stroke="#000" stroke-opacity="0" stroke-width=".31" fill="#225798"/><path d="M127.6 649.37a8 8 0 0 1 8-8h300.62a8 8 0 0 1 8 8v48.4a8 8 0 0 1-8 8h-300.6a8 8 0 0 1-8-8z" stroke="#000" stroke-opacity="0" fill="#d85656"/><use xlink:href="#a" transform="matrix(1,0,0,1,132.61364345203242,646.3659082770196) translate(84.7250000000001 36.69999999999999)"/><path d="M135.4 646.35c15.92 0 28.82 12.18 28.82 27.22 0 15.03-12.9 27.22-28.8 27.22s-28.8-12.2-28.8-27.23c0-15.04 12.9-27.22 28.8-27.22z" stroke="#d85656" stroke-width="10" fill="#fff"/><use xlink:href="#b" transform="matrix(1,0,0,1,106.61310175767267,646.3463886097974) translate(17.888888888888893 39)"/><path d="M437.2 649.37a8 8 0 0 1 8-8h300.6a8 8 0 0 1 8 8v48.4a8 8 0 0 1-8 8H445.2a8 8 0 0 1-8-8z" stroke="#000" stroke-opacity="0" fill="#225798"/><use xlink:href="#c" transform="matrix(1,0,0,1,442.19064450832957,646.3659082770196) translate(50.94722222222235 36.69999999999999)"/><path d="M445 646.35c15.9 0 28.8 12.18 28.8 27.22 0 15.03-12.9 27.22-28.8 27.22s-28.8-12.2-28.8-27.23c0-15.04 12.9-27.22 28.8-27.22z" stroke="#225798" stroke-width="10" fill="#fff"/><use xlink:href="#d" transform="matrix(1,0,0,1,416.1901028139698,646.3463886097973) translate(17.888888888888893 39)"/><path d="M748.35 650.7a8 8 0 0 1 8-8h300.6a8 8 0 0 1 8 8v45.73a8 8 0 0 1-8 8h-300.6a8 8 0 0 1-8-8z" stroke="#000" stroke-opacity="0" fill="#ff741d"/><use xlink:href="#e" transform="matrix(1,0,0,1,753.3497174044062,647.6992416103525) translate(64.66944444444455 35.19999999999999)"/><path d="M756.15 646.35c15.9 0 28.8 12.18 28.8 27.22 0 15.03-12.9 27.22-28.8 27.22s-28.8-12.2-28.8-27.23c0-15.04 12.9-27.22 28.8-27.22z" stroke="#ff741d" stroke-width="10" fill="#fff"/><use xlink:href="#f" transform="matrix(1,0,0,1,727.3491757100464,646.3463886097969) translate(17.888888888888893 39)"/><path d="M1061.1 650.7a8 8 0 0 1 8-8h300.6a8 8 0 0 1 8 8v45.73a8 8 0 0 1-8 8h-300.6a8 8 0 0 1-8-8z" stroke="#000" stroke-opacity="0" fill="#4247a8"/><use xlink:href="#g" transform="matrix(1,0,0,1,1066.0908621402623,647.6992416103529) translate(55.32777777777791 35.19999999999999)"/><path d="M1068.9 646.35c15.9 0 28.8 12.18 28.8 27.22 0 15.03-12.9 27.22-28.8 27.22s-28.8-12.2-28.8-27.23c0-15.04 12.9-27.22 28.8-27.22z" stroke="#4247a8" stroke-width="10" fill="#fff"/><use xlink:href="#h" transform="matrix(1,0,0,1,1040.090320445902,646.3463886097973) translate(17.888888888888893 39)"/><path d="M1367.6 650.7a8 8 0 0 1 8-8h269.8a8 8 0 0 1 8 8v45.73a8 8 0 0 1-8 8h-269.8a8 8 0 0 1-8-8z" stroke="#000" stroke-opacity="0" fill="#ffaf28"/><use xlink:href="#i" transform="matrix(1,0,0,1,1372.6136434520326,647.6992416103529) translate(59.67222222222232 35.19999999999999)"/><path d="M1375.4 646.35c15.92 0 28.82 12.18 28.82 27.22 0 15.03-12.9 27.22-28.8 27.22s-28.8-12.2-28.8-27.23c0-15.04 12.9-27.22 28.8-27.22z" stroke="#ffaf28" stroke-width="10" fill="#fff"/><use xlink:href="#j" transform="matrix(1,0,0,1,1346.6131017576727,646.3463886097977) translate(17.888888888888893 39)"/><path d="M1641 650.7a8 8 0 0 1 8-8h300.6a8 8 0 0 1 8 8v45.73a8 8 0 0 1-8 8H1649a8 8 0 0 1-8-8z" stroke="#000" stroke-opacity="0" fill="#c92d39"/><use xlink:href="#k" transform="matrix(1,0,0,1,1646.0005416943602,647.6992416103529) translate(58.33611111111124 35.19999999999999)"/><path d="M1648.8 646.35c15.9 0 28.8 12.18 28.8 27.22 0 15.03-12.9 27.22-28.8 27.22s-28.8-12.2-28.8-27.23c0-15.04 12.9-27.22 28.8-27.22z" stroke="#c92d39" stroke-width="10" fill="#fff"/><use xlink:href="#l" transform="matrix(1,0,0,1,1619.9999999999998,646.3463886097973) translate(17.888888888888893 39)"/><path d="M1941 649.37a8 8 0 0 1 8-8h269.77a8 8 0 0 1 8 8v45.73a8 8 0 0 1-8 8H1949a8 8 0 0 1-8-8z" stroke="#000" stroke-opacity="0" fill="#7ab648"/><use xlink:href="#m" transform="matrix(1,0,0,1,1946.00054169436,646.3659082770196) translate(61.83611111111121 35.19999999999999)"/><path d="M1948.8 645c15.9 0 28.8 12.2 28.8 27.23 0 15.04-12.9 27.22-28.8 27.22s-28.8-12.18-28.8-27.22c0-15.03 12.9-27.22 28.8-27.22z" stroke="#7ab648" stroke-width="10" fill="#fff"/><use xlink:href="#n" transform="matrix(1,0,0,1,1920,645.0130552764643) translate(17.888888888888893 39)"/><path d="M1948.8 636.5V602a12 12 0 0 0-12-12H457a12 12 0 0 0-12 12v10.25" stroke="#a9afb8" stroke-width="7" fill="none"/><path d="M1952.3 640.3l-3.3-.3-.7.02-3 .28v-3.88h7z" stroke="#a9afb8" stroke-width=".05" fill="#a9afb8"/><path d="M445 630.02l-4.64-14.27h9.27z" stroke="#a9afb8" stroke-width="7" fill="#a9afb8"/><path d="M445 709.3V738a12 12 0 0 0 12 12h1479.8a12 12 0 0 0 12-12v-4.46" stroke="#a9afb8" stroke-width="7" fill="none"/><path d="M448.5 709.38h-7v-3.88l3.3.3.7-.02 3-.28z" stroke="#a9afb8" stroke-width=".05" fill="#a9afb8"/><path d="M1948.8 715.78l4.64 14.26h-9.27z" stroke="#a9afb8" stroke-width="7" fill="#a9afb8"/><path d="M360.6 845.53l-13.8-30s-.6-1.34-2.24-1.64l-58.2-9.6s-.45-.16-1.05 0l-58.04 9.6c-.9.14-1.8.74-2.25 1.64l-13.8 30c-1.2 2.84 1.66 4.5 2.86 4.34h10.65v37.63c0 1.5 1.06 2.86 2.56 3l58.2 9.6h.9l58.2-9.6c1.5-.14 2.55-1.5 2.55-3V849.9h10.66c1.05 0 2.1-.45 2.7-1.35.6-.9.6-2.1.15-3zm-141.6-1.8l10.96-24 31.8-5.24 19.5-3.16-11.4 32.4H219zm63.76 49.63L231 884.8V849.9h41.1c1.36 0 2.56-.75 3-2.1l7.66-22.04v67.62zm58.05-8.55l-51.74 8.56v-67.62l7.65 22.04c.46 1.35 1.66 2.1 3 2.1h41.1v34.93zm-38.84-41.07l-11.4-32.4 20.4 3.3 30.9 5.1 11.1 24h-51zM310.66 775.5h-14.4v-25.33h-20.7v25.34h-14.4l24.75 24.6 24.76-24.6zm-28.95 6.3v-25.34h8.4v25.34h5.4l-9.6 9.45-9.6-9.45h5.4z" stroke="#000" stroke-opacity="0" stroke-width=".31" fill="#d85656"/><path d="M979.25 835.18l-22.8-25.25c-1.8-1.84-4.2-2.98-6.6-2.98H925.7c-4.2 0-7.35 3.55-7.35 7.38v40.3H893.9l-9.45-22.7-.45-.86 24.75-34.75c3.9-1 7.2-3.83 8.85-7.52l24.9-2.56c.3 0 .45-.14.75-.14 2.85 3.26 7.05 5.4 11.85 5.4 3.45 0 6.9-1 9.45-3.13 1.05-.85 1.35-2.7.6-3.7-.9-.98-2.7-1.26-3.75-.55-1.8 1.4-3.9 2.12-6.3 2.12-4.95 0-9.15-3.54-10.2-8.22v-4.54c1.05-4.68 5.25-8.23 10.2-8.23 2.4 0 4.5.85 6.3 2.13 1.05.7 2.85.56 3.75-.57.75-.98.45-2.83-.6-3.68-2.55-2.13-6-3.12-9.45-3.12-4.65 0-9 2.13-11.85 5.4-.6-.3-1.2-.3-1.8-.15l-28.5 7.52c-2.1-1.42-4.65-2.27-7.5-2.27-7.35 0-13.05 5.8-13.05 13.2v.13l-30.9 42.84c-1.65 1.42-3 3.27-3.9 5.25l-9.3 22.7h-16.65v25.1c0 3.55 2.85 6.4 6.3 6.4h1.8c1.2 8.93 8.85 15.74 18.15 15.74 9.3 0 16.95-6.8 18.15-15.75h55.65c1.2 8.95 8.85 15.76 18.15 15.76 9.3 0 16.95-6.8 18.15-15.75h7.05c3.45 0 6.3-2.83 6.6-6.37v-38.6c0-2.26-.75-4.4-2.4-5.95zm-4.2 3.7H936.8v-26.4h13.05c1.05 0 1.8.3 2.7 1.14l22.5 25.25zm-35.4-65.97c-.15 1-.3 1.85-.3 2.85s.15 1.98.3 2.83v2.7l-21 2.13v-.14c-.15-2.27-.75-4.4-1.8-6.24l22.8-5.67v1.56zm-34.2 2.85c4.2 0 7.95 3.4 7.95 7.94 0 4.4-3.45 7.8-7.95 7.8H905c-4.2-.15-7.35-3.55-7.35-7.8 0-4.55 3.3-7.95 7.8-7.95zm-35.25 47.23l23.7-32.76c1.65 2.83 4.5 4.96 7.65 6.1l-21.3 30.07c-2.4-2-5.4-3.13-8.55-3.27-.15-.15-.45-.15-.6-.15h-.9zm-7.5 11.07c.45-1.28 1.05-2.27 1.95-3.12.15-.14.3-.14.3-.3.6-.55 1.2-.98 1.95-1.4h.15s.15 0 .15-.15c.9-.42 2.1-.7 3.15-.7.3 0 .45-.15.75-.15.15 0 .3.14.45.14 2.4.15 4.5 1.28 6.3 2.84.6.86 1.2 1.86 1.65 2.85l8.7 20.57H854l8.7-20.57zm-4.8 62.56c-7.35 0-13.05-5.8-13.05-13.18 0-7.24 5.7-13.06 13.05-13.06 7.35 0 13.2 5.82 13.2 13.06 0 7.37-5.85 13.2-13.2 13.2zm91.95 0c-7.35 0-13.05-5.8-13.05-13.18 0-7.24 5.7-13.06 13.05-13.06 7.35 0 13.2 5.82 13.2 13.06 0 7.37-5.85 13.2-13.2 13.2zm25.2-15.74H968c-1.2-8.94-8.85-15.74-18.15-15.74h-.15-.15c-9.15 0-16.8 6.8-18.15 15.74h-55.35c-1.05-8.37-7.8-14.9-16.35-15.74H856.25c-8.55.85-15.3 7.37-16.5 15.74h-1.8c-.45 0-1.05-.57-1.05-1.13v-19.86h86.7V814.6c0-1.26 1.05-2.1 2.1-2.1h5.7v27.08c0 2.4 2.25 4.54 4.5 4.54h40.2v7.8h-13.05c-1.65 0-2.7 1.14-2.7 2.7 0 1.56 1.05 2.55 2.7 2.55h13.05v22.56c0 .56-.45 1.13-1.05 1.13z" stroke="#000" stroke-opacity="0" stroke-width=".29" fill="#ff741d"/><path d="M857.9 878.17c-2.85 0-5.25 2.4-5.25 5.25 0 2.97 2.4 5.24 5.25 5.24s5.25-2.27 5.25-5.24c0-2.84-2.4-5.25-5.25-5.25zM949.85 878.17c-2.85 0-5.25 2.4-5.25 5.25 0 2.97 2.4 5.24 5.25 5.24s5.25-2.27 5.25-5.24c0-2.84-2.4-5.25-5.25-5.25zM871.1 836.18c-1.65 0-2.7 1-2.7 2.7 0 1.55 1.05 2.55 2.7 2.55 1.5 0 2.55-1 2.55-2.56 0-1.7-1.05-2.7-2.55-2.7z" stroke="#000" stroke-opacity="0" stroke-width=".29" fill="#ff741d"/><path d="M1842.34 478.57h4.05V474h4.7v-4.08h-4.7v-4.57h-4.06v4.57h-4.7V474h4.7v4.57zM1788.5 478.57h4.04V474h4.7v-4.08h-4.7v-4.57h-4.05v4.57h-4.72V474h4.7v4.57z" stroke="#000" stroke-opacity="0" stroke-width=".31" fill="#c92d39"/><path d="M1777.77 463.44c-1.83 2.4-2.74 5.47-2.74 8.52 0 8.4 6.92 15.25 15.55 15.25 5.1 0 9.8-2.53 12.68-6.6h28.36l1.3 1.65v23.64h4.06v9.15h6.8v7.24h4.05v-7.25h6.66v-9.16h4.04v-27.33h-.13c.93-2.04 1.58-4.33 1.58-6.6 0-8.4-7.06-15.27-15.55-15.27-5.1 0-9.94 2.55-12.8 6.6h-28.24v-13.2h22.2v-3.95h-70.05v3.94h22.22v13.34zm72.67 47.54h-9.4v-5.1h9.4v5.1zm4.05-9.03h-17.52v-5.46h17.5v5.45zm0-9.4h-17.52v-7.12c2.22 1.14 4.83 1.78 7.45 1.78 3.8 0 7.32-1.4 10.06-3.68v9.03zm-20-26.2c2.1-3.55 5.75-5.58 9.93-5.58 6.27 0 11.5 4.96 11.5 11.2 0 1.9-.52 3.8-1.44 5.45h-.14c-1.96 3.56-5.75 5.85-9.93 5.85-2.75 0-5.36-1.02-7.45-2.67v-.25h-.13c-.13-.13-.26-.13-.4-.26-.78-.77-1.43-1.66-1.96-2.55-1.05-1.65-1.57-3.56-1.57-5.6 0-2.03.52-3.93 1.56-5.6zm-29.15 1.03h24.3c-.5 1.4-.78 3.05-.78 4.58 0 1.65.27 3.17.8 4.7h-24.32c.4-1.53.65-3.05.65-4.7 0-1.53-.26-3.18-.65-4.58zm-23.53-17.3h17.52v9.3c-2.62-1.66-5.62-2.68-8.76-2.68-3.14 0-6.27 1.02-8.76 2.67v-9.28zm-.4 15.14c2.1-2.8 5.5-4.45 9.16-4.45 3.53 0 6.93 1.65 9.15 4.45.26.38.52.76.65 1.14h.13c.93 1.66 1.45 3.56 1.45 5.6 0 2.03-.52 3.94-1.44 5.6h-.12c-1.96 3.55-5.75 5.7-9.8 5.7-6.4 0-11.5-5.08-11.5-11.3 0-2.42.78-4.83 2.35-6.74zM1854.5 544.15v-15.88h-25.63v15.88h-12.02v-15.88h-25.62v15.88h-12.15v-15.88h-25.62v15.88H1740v21.87c0 3.94 3.27 7.24 7.45 7.24h115.8c4.18 0 7.45-3.3 7.45-7.24v-21.87h-16.2zm-21.57-11.94h17.5v11.95h-17.5V532.2zm-20.13 0v11.95h-17.5V532.2h17.5zm-55.3 0h17.53v11.95h-17.52V532.2zm109.15 33.82c0 1.78-1.57 3.3-3.4 3.3h-115.8c-1.83 0-3.4-1.52-3.4-3.3v-8.65h16.2v8.65h4.06v-8.65h17.52v8.65h4.06v-8.65h17.5v8.65h3.93v-8.65h17.52v8.65h4.05v-8.65h17.52v8.65h4.04v-8.65h16.2v8.65zm0-12.6h-122.6v-5.33h122.6v5.33z" stroke="#000" stroke-opacity="0" stroke-width=".31" fill="#c92d39"/><path d="M1813.45 561.3h5.36v4.08h-5.35v-4.07zM1835.02 561.3h5.36v4.08h-5.36v-4.07zM1856.58 561.3h5.36v4.08h-5.36v-4.07zM1791.9 561.3h5.35v4.08h-5.36v-4.07zM1770.32 561.3h5.36v4.08h-5.36v-4.07zM1748.76 561.3h5.36v4.08h-5.36v-4.07z" stroke="#000" stroke-opacity="0" stroke-width=".31" fill="#c92d39"/><defs><path fill="#fff" d="M241-173c-1 82-78 91-166 86L58 0H6l48-248c87 0 188-12 187 75zm-53 2c0-43-48-36-90-36l-15 80c50 0 105 7 105-44" id="o"/><path fill="#fff" d="M114-194c63-2 87 48 72 110H63c-3 28 1 55 31 54 21-1 32-13 37-29l44 13C160-14 137 4 91 4 41 4 11-22 11-73c0-71 33-119 103-121zm30 77c14-47-50-61-67-22-3 6-6 13-8 22h75" id="p"/><path fill="#fff" d="M132-28C118-9 101 4 69 4 30 4 10-23 10-62c0-70 24-129 92-132 31-1 47 14 56 35l19-102h49L179 0h-49zM62-69c0 22 7 39 29 39 45-2 54-45 57-90 2-27-10-40-33-40-44 0-53 48-53 91" id="q"/><path fill="#fff" d="M50-224l7-37h49l-7 37H50zM6 0l37-190h49L55 0H6" id="r"/><path fill="#fff" d="M124-194c51 0 84 22 84 74C207-44 167 4 94 4 43 4 11-23 11-74c0-74 41-120 113-120zM99-30c46 0 58-42 58-86 0-27-11-44-37-44-44 0-55 40-57 84-1 27 10 45 36 46" id="s"/><g id="a"><use transform="matrix(0.10555555555555542,0,0,0.10555555555555542,0,0)" xlink:href="#o"/><use transform="matrix(0.10555555555555542,0,0,0.10555555555555542,25.3333333333333,0)" xlink:href="#p"/><use transform="matrix(0.10555555555555542,0,0,0.10555555555555542,46.444444444444386,0)" xlink:href="#q"/><use transform="matrix(0.10555555555555542,0,0,0.10555555555555542,69.56111111111102,0)" xlink:href="#r"/><use transform="matrix(0.10555555555555542,0,0,0.10555555555555542,80.11666666666656,0)" xlink:href="#q"/><use transform="matrix(0.10555555555555542,0,0,0.10555555555555542,103.23333333333319,0)" xlink:href="#s"/></g><path fill="#333" d="M23 0v-37h61v-169l-59 37v-38l62-41h46v211h57V0H23" id="t"/><use transform="matrix(0.11111111111111108,0,0,0.11111111111111108,0,0)" xlink:href="#t" id="b"/><path fill="#fff" d="M84-151c13-25 34-51 72-40l-8 41C67-170 71-64 56 0H6l36-190h47" id="u"/><path fill="#fff" d="M67-101c-8 29-7 73 27 71 23-2 32-16 39-37l48 9C170-19 141 4 91 4 36 4 7-28 12-86c6-75 61-124 140-103 26 7 40 29 43 59l-50 4c-1-20-9-34-29-34-35 0-41 29-49 59" id="v"/><path fill="#fff" d="M144-137c-1-29-70-35-71-2 16 41 103 10 103 80C176 9 79 16 32-9 18-17 9-31 4-48l44-6c3 32 80 36 82 1-15-42-103-11-103-82 0-77 157-79 161-8" id="w"/><path fill="#fff" d="M166-52c-4 17 5 29 24 23l-3 27c-30 11-74 1-67-34C105-15 91 4 56 4 23 4 3-15 2-49c0-64 63-67 128-67 10-22 3-53-29-45-13 3-22 10-25 24l-46-5c5-64 156-77 153 0-1 33-11 60-17 90zM97-88c-44-9-64 57-19 57 31 0 42-28 47-57H97" id="x"/><g id="c"><use transform="matrix(0.10555555555555542,0,0,0.10555555555555542,0,0)" xlink:href="#o"/><use transform="matrix(0.10555555555555542,0,0,0.10555555555555542,25.3333333333333,0)" xlink:href="#u"/><use transform="matrix(0.10555555555555542,0,0,0.10555555555555542,40.11111111111106,0)" xlink:href="#s"/><use transform="matrix(0.10555555555555542,0,0,0.10555555555555542,63.227777777777696,0)" xlink:href="#v"/><use transform="matrix(0.10555555555555542,0,0,0.10555555555555542,84.33888888888877,0)" xlink:href="#p"/><use transform="matrix(0.10555555555555542,0,0,0.10555555555555542,105.44999999999986,0)" xlink:href="#w"/><use transform="matrix(0.10555555555555542,0,0,0.10555555555555542,126.56111111111095,0)" xlink:href="#x"/><use transform="matrix(0.10555555555555542,0,0,0.10555555555555542,147.67222222222202,0)" xlink:href="#q"/><use transform="matrix(0.10555555555555542,0,0,0.10555555555555542,170.78888888888866,0)" xlink:href="#s"/></g><path fill="#333" d="M182-182c0 78-84 86-111 141h115V0H12c-6-101 99-100 120-180 1-22-12-31-33-32-23 0-32 14-35 34l-49-3c5-45 32-70 84-70 51 0 83 22 83 69" id="y"/><use transform="matrix(0.11111111111111108,0,0,0.11111111111111108,0,0)" xlink:href="#y" id="d"/><path fill="#fff" d="M250-142C247-53 197 0 108 0H6l48-248c105-5 200 3 196 106zm-49 2c1-57-42-72-103-68L66-40c84 6 135-22 135-100" id="z"/><path fill="#fff" d="M156-122c2-23-7-37-28-37-47 0-58 44-58 89 0 24 12 40 36 40 43 0 47-49 50-92zM-8 75l50-265h48c0 10-3 24-3 30 22-50 127-45 121 29-6 73-21 135-92 135-29 0-46-14-55-35L41 75H-8" id="A"/><path fill="#fff" d="M6 0l51-261h49L55 0H6" id="B"/><path fill="#fff" d="M-6 0l7-35 114-120H31l7-35h142l-7 35L59-36h100l-7 36H-6" id="C"/><g id="e"><use transform="matrix(0.10555555555555542,0,0,0.10555555555555542,0,0)" xlink:href="#z"/><use transform="matrix(0.10555555555555542,0,0,0.10555555555555542,27.338888888888853,0)" xlink:href="#p"/><use transform="matrix(0.10555555555555542,0,0,0.10555555555555542,48.44999999999993,0)" xlink:href="#w"/><use transform="matrix(0.10555555555555542,0,0,0.10555555555555542,69.56111111111102,0)" xlink:href="#A"/><use transform="matrix(0.10555555555555542,0,0,0.10555555555555542,92.67777777777765,0)" xlink:href="#B"/><use transform="matrix(0.10555555555555542,0,0,0.10555555555555542,103.23333333333319,0)" xlink:href="#x"/><use transform="matrix(0.10555555555555542,0,0,0.10555555555555542,124.34444444444428,0)" xlink:href="#C"/><use transform="matrix(0.10555555555555542,0,0,0.10555555555555542,143.34444444444426,0)" xlink:href="#s"/></g><path fill="#333" d="M128-127c34 4 56 21 59 58 7 91-148 94-172 28-4-9-6-17-7-26l51-5c1 24 16 35 40 36 23 0 39-12 38-36-1-31-31-36-65-34v-40c32 2 59-3 59-33 0-20-13-33-34-33s-33 13-35 32l-50-3c6-44 37-68 86-68 50 0 83 20 83 66 0 35-22 52-53 58" id="D"/><use transform="matrix(0.11111111111111108,0,0,0.11111111111111108,0,0)" xlink:href="#D" id="f"/><path fill="#fff" d="M98-208l-15 77h118l-8 40H76L58 0H6l48-248h174l-8 40H98" id="E"/><path fill="#fff" d="M72-63c-8 23 5 39 32 30L98-1C54 14 12-6 23-64l18-93H15l7-33h28l24-45h31l-8 45h35l-6 33H90" id="F"/><path fill="#fff" d="M45-171c29-32 103-29 114 14 2-11 5-23 8-33h47L176-2c-3 70-92 96-155 64C9 56 1 42-1 25l50-5c2 28 48 27 63 11 13-13 20-45 21-66-13 20-30 35-62 36-87 3-60-134-26-172zM94-35c41-3 55-43 55-86 0-24-12-39-35-39-43 0-51 48-51 90 0 22 9 37 31 35" id="G"/><path fill="#fff" d="M93-157L62 0H13l31-157H16l6-33h28c2-54 40-81 100-68l-6 32c-29-8-44 9-45 36h38l-7 33H93" id="H"/><path fill="#fff" d="M6 0l37-190h49L55 0H6zm40-208c10-23 30-36 44-56h49l-1 8-67 48H46" id="I"/><g id="g"><use transform="matrix(0.10555555555555542,0,0,0.10555555555555542,0,0)" xlink:href="#E"/><use transform="matrix(0.10555555555555542,0,0,0.10555555555555542,23.116666666666635,0)" xlink:href="#s"/><use transform="matrix(0.10555555555555542,0,0,0.10555555555555542,46.23333333333327,0)" xlink:href="#F"/><use transform="matrix(0.10555555555555542,0,0,0.10555555555555542,58.794444444444366,0)" xlink:href="#s"/><use transform="matrix(0.10555555555555542,0,0,0.10555555555555542,81.911111111111,0)" xlink:href="#G"/><use transform="matrix(0.10555555555555542,0,0,0.10555555555555542,105.02777777777763,0)" xlink:href="#u"/><use transform="matrix(0.10555555555555542,0,0,0.10555555555555542,119.8055555555554,0)" xlink:href="#x"/><use transform="matrix(0.10555555555555542,0,0,0.10555555555555542,140.91666666666646,0)" xlink:href="#H"/><use transform="matrix(0.10555555555555542,0,0,0.10555555555555542,153.47777777777756,0)" xlink:href="#I"/><use transform="matrix(0.10555555555555542,0,0,0.10555555555555542,164.0333333333331,0)" xlink:href="#x"/></g><path fill="#333" d="M165-50V0h-47v-50H5v-38l105-160h55v161h33v37h-33zm-47-37l2-116L46-87h72" id="J"/><use transform="matrix(0.11111111111111108,0,0,0.11111111111111108,0,0)" xlink:href="#J" id="h"/><path fill="#fff" d="M183 0l-10-63H79L44 0H-7l138-248h61L234 0h-51zm-14-102l-15-108c-16 38-36 73-55 108h70" id="K"/><path fill="#fff" d="M151-194c95 0 34 128 28 194h-49l25-134c0-29-45-25-59-9C67-111 69-48 56 0H6l36-190h47l-4 32c15-20 33-36 66-36" id="L"/><path fill="#fff" d="M166-52c-4 17 5 29 24 23l-3 27c-30 11-74 1-67-34C105-15 91 4 56 4 23 4 3-15 2-49c0-64 63-67 128-67 10-22 3-53-29-45-13 3-22 10-25 24l-46-5c5-64 156-77 153 0-1 33-11 60-17 90zM97-88c-44-9-64 57-19 57 31 0 42-28 47-57H97zm-2-120c10-23 30-36 44-56h49l-1 8-67 48H95" id="M"/><g id="i"><use transform="matrix(0.10555555555555542,0,0,0.10555555555555542,0,0)" xlink:href="#K"/><use transform="matrix(0.10555555555555542,0,0,0.10555555555555542,27.338888888888853,0)" xlink:href="#L"/><use transform="matrix(0.10555555555555542,0,0,0.10555555555555542,50.45555555555549,0)" xlink:href="#M"/><use transform="matrix(0.10555555555555542,0,0,0.10555555555555542,71.56666666666658,0)" xlink:href="#B"/><use transform="matrix(0.10555555555555542,0,0,0.10555555555555542,82.12222222222212,0)" xlink:href="#r"/><use transform="matrix(0.10555555555555542,0,0,0.10555555555555542,92.67777777777766,0)" xlink:href="#w"/><use transform="matrix(0.10555555555555542,0,0,0.10555555555555542,113.78888888888874,0)" xlink:href="#r"/><use transform="matrix(0.10555555555555542,0,0,0.10555555555555542,124.34444444444428,0)" xlink:href="#w"/></g><path fill="#333" d="M139-81c0-46-55-55-73-27H18l9-140h149v37H72l-4 63c44-38 133-4 122 66C201 21 21 35 11-62l49-4c5 18 15 30 39 30 26 0 40-18 40-45" id="N"/><use transform="matrix(0.11111111111111108,0,0,0.11111111111111108,0,0)" xlink:href="#N" id="j"/><path fill="#fff" d="M258-177c0 46-32 67-71 75L235 0h-57l-41-94H76L58 0H6l48-248c89 2 204-19 204 71zm-53 3c0-46-63-30-107-33l-14 73c51-2 120 13 121-40" id="O"/><g id="k"><use transform="matrix(0.10555555555555542,0,0,0.10555555555555542,0,0)" xlink:href="#O"/><use transform="matrix(0.10555555555555542,0,0,0.10555555555555542,27.338888888888853,0)" xlink:href="#p"/><use transform="matrix(0.10555555555555542,0,0,0.10555555555555542,48.44999999999993,0)" xlink:href="#v"/><use transform="matrix(0.10555555555555542,0,0,0.10555555555555542,69.56111111111102,0)" xlink:href="#s"/><use transform="matrix(0.10555555555555542,0,0,0.10555555555555542,92.67777777777765,0)" xlink:href="#B"/><use transform="matrix(0.10555555555555542,0,0,0.10555555555555542,103.23333333333319,0)" xlink:href="#p"/><use transform="matrix(0.10555555555555542,0,0,0.10555555555555542,124.34444444444428,0)" xlink:href="#v"/><use transform="matrix(0.10555555555555542,0,0,0.10555555555555542,145.45555555555535,0)" xlink:href="#F"/><use transform="matrix(0.10555555555555542,0,0,0.10555555555555542,158.01666666666645,0)" xlink:href="#x"/></g><path fill="#333" d="M115-159c48 0 72 30 72 78 0 54-30 85-83 85-64 0-91-50-91-122 0-98 58-163 141-120 15 8 21 24 27 44l-47 6c-5-31-48-31-61-4-7 14-11 33-11 60 9-17 28-27 53-27zM102-35c24 0 36-20 36-45s-11-43-37-43c-23 0-36 14-36 38 0 27 11 50 37 50" id="P"/><use transform="matrix(0.11111111111111108,0,0,0.11111111111111108,0,0)" xlink:href="#P" id="l"/><path fill="#fff" d="M6 0l48-248h195l-8 40H98l-12 63h132l-7 40H79L66-40h150l-8 40H6" id="Q"/><g id="m"><use transform="matrix(0.10555555555555542,0,0,0.10555555555555542,0,0)" xlink:href="#Q"/><use transform="matrix(0.10555555555555542,0,0,0.10555555555555542,25.3333333333333,0)" xlink:href="#L"/><use transform="matrix(0.10555555555555542,0,0,0.10555555555555542,48.44999999999993,0)" xlink:href="#F"/><use transform="matrix(0.10555555555555542,0,0,0.10555555555555542,61.01111111111103,0)" xlink:href="#u"/><use transform="matrix(0.10555555555555542,0,0,0.10555555555555542,75.78888888888879,0)" xlink:href="#p"/><use transform="matrix(0.10555555555555542,0,0,0.10555555555555542,96.89999999999988,0)" xlink:href="#G"/><use transform="matrix(0.10555555555555542,0,0,0.10555555555555542,120.01666666666651,0)" xlink:href="#x"/></g><path fill="#333" d="M52 0c1-96 47-148 87-207H15v-41h169v40c-36 62-79 113-81 208H52" id="R"/><use transform="matrix(0.11111111111111108,0,0,0.11111111111111108,0,0)" xlink:href="#R" id="n"/></defs></g></svg>